Coordinates
version=1
nRows=24
nColumns=24
inDegrees=yes

Units are S.I. units (second, meters, Newtons, ...)
Angles are in degrees.

endheader
time	pelvis_tilt	pelvis_list	pelvis_rotation	pelvis_tx	pelvis_ty	pelvis_tz	hip_flexion_r	hip_adduction_r	hip_rotation_r	knee_angle_r	ankle_angle_r	subtalar_angle_r	mtp_angle_r	hip_flexion_l	hip_adduction_l	hip_rotation_l	knee_angle_l	ankle_angle_l	subtalar_angle_l	mtp_angle_l	lumbar_extension	lumbar_bending	lumbar_rotation
      3.17000000	     -9.21131962	      2.68206861	     -6.58917882	     -1.26218795	     -0.04438253	      0.71283049	     -8.50720732	     -3.93397266	      8.44542915	    -12.38708241	     11.55925437	      5.49290847	     14.16916891	     38.92040858	     -1.92086956	     -6.02516310	    -20.07816986	      1.76754379	      7.14398088	     10.25696276	      4.31539442	      1.06980468	      9.29198308
      3.17500000	     -9.37557517	      3.01968885	     -6.84749366	     -1.25402227	     -0.04557671	      0.71333496	     -8.36159679	     -4.34130481	      8.38341435	    -13.07174689	     11.19964972	      5.85052370	     15.13172171	     38.93322711	     -1.68824207	     -6.15141984	    -20.17247512	      1.09364352	      6.77204452	     11.93220222	      4.59801086	      0.58421653	      9.49544293
      3.18000000	     -9.52397795	      3.30944274	     -7.17370726	     -1.24592728	     -0.04670653	      0.71389890	     -8.16409467	     -4.68595897	      8.57793497	    -13.89354256	     10.86862795	      6.11271904	     15.32050534	     38.98893093	     -1.53124277	     -6.27500469	    -20.56841123	      0.79636302	      6.40100929	     12.10712797	      4.84531426	      0.15551713	      9.80488184
      3.18500000	     -9.65129888	      3.66237864	     -7.37111455	     -1.23776251	     -0.04786950	      0.71420552	     -7.90355564	     -5.14487373	      8.10420014	    -14.84154248	     10.57422925	      7.02356139	     16.31761774	     39.07665271	     -1.22872157	     -6.33036166	    -21.07852764	      0.02186369	      5.83389641	     13.23415150	      5.08205254	     -0.35065514	      9.93984845
      3.19000000	     -9.81572668	      3.99580724	     -7.57387619	     -1.22961383	     -0.04896189	      0.71460070	     -7.57298763	     -5.55014228	      7.93837372	    -15.82172810	     10.02418696	      7.53172836	     17.45762927	     39.25668300	     -0.96640147	     -6.39752635	    -21.74678592	     -0.98216547	      5.17314823	     14.55784747	      5.35450575	     -0.84434806	     10.10816475
      3.19500000	     -9.97081173	      4.33823046	     -7.72855572	     -1.22145736	     -0.05001196	      0.71498349	     -7.18664775	     -5.95361061	      7.74186223	    -16.92880215	      9.43229145	      8.03434870	     18.40852020	     39.48886445	     -0.65995084	     -6.34734075	    -22.59163822	     -1.92676482	      4.49619680	     15.51165391	      5.61762616	     -1.36505885	     10.20099668
      3.20000000	    -10.13579006	      4.70259605	     -7.83309994	     -1.21332227	     -0.05102871	      0.71527637	     -6.71351166	     -6.37967966	      7.49270700	    -18.15972500	      8.75550396	      8.57073129	     19.41628532	     39.79709436	     -0.29298637	     -6.18161358	    -23.57927272	     -2.83131801	      3.80929613	     16.22340369	      5.88697931	     -1.91330553	     10.25699213
      3.20500000	    -10.30159892	      5.07495469	     -7.89013572	     -1.20516100	     -0.05193260	      0.71552961	     -6.18136513	     -6.81555826	      7.19615246	    -19.46878257	      7.88346376	      9.12327082	     20.58538725	     40.14691872	      0.12238314	     -5.90632091	    -24.64676539	     -3.66878099	      3.12655022	     16.71376585	      6.16076681	     -2.48089052	     10.25552276
      3.21000000	    -10.46522592	      5.46676774	     -7.90778357	     -1.19702107	     -0.05281057	      0.71571720	     -5.56536542	     -7.27566718	      6.85381943	    -20.91007616	      6.90057709	      9.68648339	     21.86973073	     40.52655311	      0.60385815	     -5.49687809	    -25.76292981	     -4.26126412	      2.46916950	     16.84990962	      6.42896733	     -3.07511308	     10.21542193
      3.21500000	    -10.55702759	      5.87139973	     -7.87493635	     -1.18884806	     -0.05351361	      0.71586353	     -4.99358011	     -7.75343233	      6.52246120	    -22.34473126	      5.52837777	      9.97612487	     24.05238738	     40.83210474	      1.16317738	     -5.00845644	    -26.87021741	     -4.53298244	      1.83072316	     16.34336616	      6.61610522	     -3.70297839	     10.10906775
      3.22000000	    -10.68489887	      6.29278203	     -7.78792599	     -1.18069818	     -0.05426513	      0.71586656	     -4.28372768	     -8.27119072	      6.04526734	    -23.95769834	      4.17705480	     10.54291647	     25.78841940	     41.19074264	      1.78355517	     -4.52410031	    -27.97051229	     -4.46641510	      1.15336857	     15.07832207	      6.83777308	     -4.34427170	      9.93962308
      3.22500000	    -10.77205846	      6.76018131	     -7.69253909	     -1.17242288	     -0.05487650	      0.71582466	     -3.57901563	     -8.85142009	      5.64193886	    -25.57663014	      2.54552467	     11.01594877	     27.85354904	     41.43658138	      2.49156198	     -3.98122494	    -28.94724712	     -4.00324209	      0.42236976	     12.88108759	      7.03770808	     -5.03193556	      9.82537056
      3.23000000	    -10.82357885	      7.22466971	     -7.57067966	     -1.16418312	     -0.05543503	      0.71572041	     -2.84912766	     -9.44647273	      5.21327986	    -27.26679491	      0.75417450	     11.51859504	     29.92509340	     41.61117751	      3.21581850	     -3.55109990	    -29.83476357	     -3.34006375	     -0.43070292	     10.08530771	      7.18869093	     -5.71873992	      9.65407867
      3.23500000	    -10.85170760	      7.69411857	     -7.42415284	     -1.15592396	     -0.05592731	      0.71560176	     -2.10611172	    -10.05304866	      4.81025096	    -28.97388990	     -1.24392812	     11.97105438	     32.11339336	     41.69805322	      3.95725178	     -3.19856534	    -30.59952432	     -2.54948411	     -1.37915315	      6.84220230	      7.31554867	     -6.41608811	      9.46625369
      3.24000000	    -10.85858327	      8.14216243	     -7.25974674	     -1.14770502	     -0.05635355	      0.71546423	     -1.34987497	    -10.64075408	      4.44302978	    -30.68809900	     -3.43349322	     12.38854916	     34.38179236	     41.70173235	      4.67274718	     -2.96426817	    -31.24866138	     -1.76148133	     -2.37739475	      3.51194734	      7.40762434	     -7.09226638	      9.23008631
      3.24500000	    -10.86258945	      8.56715878	     -7.08804814	     -1.13951397	     -0.05671425	      0.71534754	     -0.56733770	    -11.19562774	      4.13864237	    -32.39067952	     -5.81085778	     12.72622455	     36.71609762	     41.62401227	      5.35679447	     -2.75349573	    -31.77985845	     -0.98530695	     -3.28741826	      0.37302137	      7.48924013	     -7.74224024	      9.02219669
      3.25000000	    -10.86731692	      8.95315621	     -6.90563391	     -1.13139109	     -0.05701263	      0.71524637	      0.24273937	    -11.69561398	      3.89877588	    -34.08204033	     -8.32076088	     13.03096493	     39.03183374	     41.48365495	      5.98552764	     -2.60277833	    -32.22228735	     -0.30753203	     -4.05333054	     -2.21540282	      7.56172699	     -8.34955574	      8.79885740
      3.25500000	    -10.88413453	      9.30788327	     -6.70689540	     -1.12332691	     -0.05724502	      0.71515353	      1.08157019	    -12.14863253	      3.69492581	    -35.74442371	    -10.91174165	     13.28714160	     41.31964961	     41.29723676	      6.56627227	     -2.49837295	    -32.59277179	      0.28689161	     -4.59136093	     -4.14525429	      7.63263464	     -8.91980217	      8.54575831
      3.26000000	    -10.91169399	      9.62575436	     -6.49646657	     -1.11537059	     -0.05741871	      0.71504617	      1.96142692	    -12.54874867	      3.53144462	    -37.40433453	    -13.51521646	     13.53801791	     43.53502944	     41.08039628	      7.09670056	     -2.43784560	    -32.92050532	      0.81276786	     -4.92894401	     -5.49436180	      7.70201051	     -9.44767443	      8.26059942
      3.26500000	    -10.93699592	      9.90527645	     -6.28358098	     -1.10754040	     -0.05750333	      0.71491698	      2.86610838	    -12.90333426	      3.36003333	    -39.04673170	    -16.10790433	     13.66267834	     45.78274063	     40.83169118	      7.56986849	     -2.44867829	    -33.22348652	      1.34764020	     -5.07438029	     -6.53452172	      7.74670954	     -9.92504352	      7.95253908
      3.27000000	    -10.98549834	     10.17536885	     -6.06984213	     -1.09978241	     -0.05751914	      0.71474628	      3.82979570	    -13.24463812	      3.18276193	    -40.69426970	    -18.61417738	     13.65389149	     47.92325854	     40.56983286	      8.02471054	     -2.46889904	    -33.48057397	      1.89906971	     -5.11770929	     -7.38595275	      7.81509996	    -10.37560040	      7.66821888
      3.27500000	    -11.04764354	     10.44349428	     -5.85632702	     -1.09209508	     -0.05744365	      0.71457821	      4.84010730	    -13.57403933	      3.01320834	    -42.34777534	    -20.99686847	     13.42557804	     49.96324418	     40.28876254	      8.46404062	     -2.51575198	    -33.68955893	      2.49332148	     -5.08928450	     -8.18451164	      7.89797440	    -10.81654630	      7.35603873
      3.28000000	    -11.11057596	     10.71760117	     -5.63862879	     -1.08446256	     -0.05727532	      0.71437701	      5.88078643	    -13.90900950	      2.83493986	    -44.01533065	    -23.20203106	     12.94429716	     51.86536027	     39.97676678	      8.90584926	     -2.57618844	    -33.84899858	      3.16336219	     -5.00554739	     -9.00551552	      7.98203271	    -11.25123103	      7.01227749
      3.28500000	    -11.18520769	     11.00569364	     -5.42896942	     -1.07687146	     -0.05703028	      0.71417164	      6.97297913	    -14.25840508	      2.65886373	    -45.71684330	    -25.18102921	     12.19861198	     53.47508226	     39.64284100	      9.35571318	     -2.62421771	    -33.94879063	      3.86697953	     -4.90815081	     -9.75989903	      8.08910130	    -11.69150394	      6.66804874
